<svg class="stroke-current" xmlns="http://www.w3.org/2000/svg" width="794" height="794" fill="none"><path class="stroke-current" stroke-linecap="round" stroke-width="6" d="M557.6 396.599c0 88.552-14.2 174.085-39.954 240.662S456.34 746.918 417.614 758.477c-7.002 2.09-14.021 3.123-21.014 3.123-17.463.001-34.949-6.439-51.752-19.37-36.987-28.464-68.148-86.442-87.678-163.13m278.86-365.001c-19.53-76.688-50.692-134.665-87.679-163.13C431.548 38.04 414.063 31.6 396.6 31.6c-6.994 0-14.013 1.034-21.015 3.124-38.726 11.558-74.278 54.64-100.032 121.216C249.799 222.516 235.6 308.048 235.6 396.6"/><path stroke="#6320EE" stroke-linecap="round" stroke-width="6" d="M536.03 477.099c-44.276 76.689-99.34 143.662-154.932 188.442-55.592 44.781-107.921 64.314-147.238 54.961-7.108-1.691-13.704-4.306-19.761-7.803-15.123-8.731-27.046-23.05-35.133-42.651-17.799-43.144-15.797-108.934 5.633-185.113M608.6 308.265c21.431-76.179 23.433-141.969 5.633-185.114-8.087-19.6-20.009-33.92-35.133-42.65-6.057-3.498-12.652-6.112-19.761-7.803-39.317-9.353-91.646 10.18-147.238 54.96-55.592 44.781-110.656 111.754-154.932 188.442"/><path stroke="#6320EE" stroke-linecap="round" stroke-width="6" d="M477.1 536.03c-76.688 44.276-157.861 74.744-228.396 85.729-70.534 10.985-125.619 1.737-154.992-26.022-5.31-5.018-9.715-10.581-13.212-16.637-8.732-15.123-11.898-33.486-9.1-54.504 6.157-46.263 40.786-102.239 97.435-157.496m455.53 59c56.649-55.258 91.278-111.233 97.435-157.497 2.797-21.018-.369-39.38-9.101-54.503-3.496-6.057-7.901-11.619-13.212-16.638-29.373-27.758-84.458-37.007-154.992-26.022-70.534 10.985-151.707 41.454-228.396 85.73"/><path stroke="#6320EE" stroke-linecap="round" stroke-width="6" d="M396.6 557.6c-88.552 0-174.084-14.2-240.661-39.954S46.281 456.34 34.723 417.614c-2.09-7.001-3.124-14.021-3.124-21.014 0-17.463 6.44-34.949 19.37-51.752 28.465-36.987 86.442-68.148 163.13-87.678M579.1 536.03c76.688-19.53 134.665-50.691 163.13-87.678 12.931-16.804 19.371-34.289 19.37-51.752 0-6.994-1.033-14.013-3.123-21.015-11.559-38.726-54.64-74.277-121.217-100.031C570.684 249.8 485.151 235.6 396.599 235.6"/><path stroke="#6320EE" stroke-linecap="round" stroke-width="6" d="M316.1 536.03c-76.688-44.276-143.661-99.34-188.442-154.932-44.78-55.592-64.313-107.921-54.96-147.238 1.69-7.108 4.305-13.704 7.802-19.761 8.731-15.123 23.051-27.046 42.651-35.133 43.145-17.799 108.935-15.797 185.114 5.633M484.935 608.6c76.179 21.431 141.969 23.433 185.113 5.633 19.601-8.086 33.92-20.009 42.651-35.133 3.497-6.057 6.112-12.652 7.803-19.761 9.353-39.317-10.181-91.646-54.961-147.238S553.788 301.445 477.099 257.169"/><path stroke="#6320EE" stroke-linecap="round" stroke-width="6" d="M257.17 477.1c-44.276-76.688-74.745-157.861-85.73-228.396-10.985-70.534-1.736-125.619 26.022-154.992 5.019-5.31 10.581-9.715 16.637-13.212 15.124-8.732 33.486-11.898 54.504-9.1 46.264 6.157 102.239 40.786 157.497 97.435m-59 455.53c55.257 56.649 111.233 91.278 157.496 97.435 21.018 2.797 39.381-.369 54.504-9.101 6.056-3.496 11.619-7.901 16.637-13.212 27.759-29.373 37.007-84.458 26.022-154.992-10.985-70.534-41.453-151.707-85.729-228.396"/></svg>