<svg width="1440" height="1024" viewBox="0 0 1440 1024" fill="none" xmlns="http://www.w3.org/2000/svg">
<g opacity="0.5">
<line x1="75.5" y1="2.18557e-08" x2="75.5" y2="1024" stroke="#b3b3b3"/>
<line x1="150.5" y1="2.18557e-08" x2="150.5" y2="1024" stroke="#b3b3b3"/>
<line x1="225.5" y1="2.18557e-08" x2="225.5" y2="1024" stroke="#b3b3b3"/>
<line x1="300.5" y1="2.18557e-08" x2="300.5" y2="1024" stroke="#b3b3b3"/>
<line x1="375.5" y1="2.18557e-08" x2="375.5" y2="1024" stroke="#b3b3b3"/>
<line x1="450.5" y1="2.18557e-08" x2="450.5" y2="1024" stroke="#b3b3b3"/>
<line x1="525.5" y1="2.18557e-08" x2="525.5" y2="1024" stroke="#b3b3b3"/>
<line x1="600.5" y1="2.18557e-08" x2="600.5" y2="1024" stroke="#b3b3b3"/>
<line x1="675.5" y1="2.18557e-08" x2="675.5" y2="1024" stroke="#b3b3b3"/>
</g>
<g opacity="0.5">
<line x1="750.5" y1="2.18557e-08" x2="750.5" y2="1024" stroke="#b3b3b3"/>
<line x1="825.5" y1="2.18557e-08" x2="825.5" y2="1024" stroke="#b3b3b3"/>
<line x1="900.5" y1="2.18557e-08" x2="900.5" y2="1024" stroke="#b3b3b3"/>
<line x1="975.5" y1="2.18557e-08" x2="975.5" y2="1024" stroke="#b3b3b3"/>
<line x1="1050.5" y1="2.18557e-08" x2="1050.5" y2="1024" stroke="#b3b3b3"/>
<line x1="1125.5" y1="2.18557e-08" x2="1125.5" y2="1024" stroke="#b3b3b3"/>
<line x1="1200.5" y1="2.18557e-08" x2="1200.5" y2="1024" stroke="#b3b3b3"/>
<line x1="1275.5" y1="2.18557e-08" x2="1275.5" y2="1024" stroke="#b3b3b3"/>
<line x1="1350.5" y1="2.18557e-08" x2="1350.5" y2="1024" stroke="#b3b3b3"/>
</g>
<g opacity="0.5">
<line x1="1440" y1="62.499" x2="-3.87588e-08" y2="62.4989" stroke="#b3b3b3"/>
<line x1="1440" y1="587.499" x2="-3.87588e-08" y2="587.499" stroke="#b3b3b3"/>
<line x1="1440" y1="137.499" x2="-3.87588e-08" y2="137.499" stroke="#b3b3b3"/>
<line x1="1440" y1="662.499" x2="-3.87588e-08" y2="662.499" stroke="#b3b3b3"/>
<line x1="1440" y1="212.499" x2="-3.87588e-08" y2="212.499" stroke="#b3b3b3"/>
<line x1="1440" y1="737.499" x2="-3.87588e-08" y2="737.499" stroke="#b3b3b3"/>
<line x1="1440" y1="287.499" x2="-3.87588e-08" y2="287.499" stroke="#b3b3b3"/>
<line x1="1440" y1="812.499" x2="-3.87588e-08" y2="812.499" stroke="#b3b3b3"/>
<line x1="1440" y1="362.499" x2="-3.87588e-08" y2="362.499" stroke="#b3b3b3"/>
<line x1="1440" y1="887.499" x2="-3.87588e-08" y2="887.499" stroke="#b3b3b3"/>
<line x1="1440" y1="437.499" x2="-3.87588e-08" y2="437.499" stroke="#b3b3b3"/>
<line x1="1440" y1="962.499" x2="-3.87588e-08" y2="962.499" stroke="#b3b3b3"/>
<line x1="1440" y1="512.499" x2="-3.87588e-08" y2="512.499" stroke="#b3b3b3"/>
</g>
<g opacity="0.6">
<rect x="74" y="953" width="3" height="19" rx="1.5" fill="#b3b3b3"/>
<rect x="85" y="961" width="3" height="19" rx="1.5" transform="rotate(90 85 961)" fill="#b3b3b3"/>
<rect x="374" y="953" width="3" height="19" rx="1.5" fill="#b3b3b3"/>
<rect x="385" y="961" width="3" height="19" rx="1.5" transform="rotate(90 385 961)" fill="#b3b3b3"/>
<rect x="674" y="953" width="3" height="19" rx="1.5" fill="#b3b3b3"/>
<rect x="685" y="961" width="3" height="19" rx="1.5" transform="rotate(90 685 961)" fill="#b3b3b3"/>
<rect x="74" y="653" width="3" height="19" rx="1.5" fill="#b3b3b3"/>
<rect x="85" y="661" width="3" height="19" rx="1.5" transform="rotate(90 85 661)" fill="#b3b3b3"/>
<rect x="374" y="653" width="3" height="19" rx="1.5" fill="#b3b3b3"/>
<rect x="385" y="661" width="3" height="19" rx="1.5" transform="rotate(90 385 661)" fill="#b3b3b3"/>
<rect x="674" y="653" width="3" height="19" rx="1.5" fill="#b3b3b3"/>
<rect x="685" y="661" width="3" height="19" rx="1.5" transform="rotate(90 685 661)" fill="#b3b3b3"/>
<rect x="74" y="353" width="3" height="19" rx="1.5" fill="#b3b3b3"/>
<rect x="85" y="361" width="3" height="19" rx="1.5" transform="rotate(90 85 361)" fill="#b3b3b3"/>
<rect x="374" y="353" width="3" height="19" rx="1.5" fill="#b3b3b3"/>
<rect x="385" y="361" width="3" height="19" rx="1.5" transform="rotate(90 385 361)" fill="#b3b3b3"/>
<rect x="674" y="353" width="3" height="19" rx="1.5" fill="#b3b3b3"/>
<rect x="685" y="361" width="3" height="19" rx="1.5" transform="rotate(90 685 361)" fill="#b3b3b3"/>
<rect x="74" y="53" width="3" height="19" rx="1.5" fill="#b3b3b3"/>
<rect x="85" y="61" width="3" height="19" rx="1.5" transform="rotate(90 85 61)" fill="#b3b3b3"/>
<rect x="374" y="53" width="3" height="19" rx="1.5" fill="#b3b3b3"/>
<rect x="385" y="61" width="3" height="19" rx="1.5" transform="rotate(90 385 61)" fill="#b3b3b3"/>
<rect x="674" y="53" width="3" height="19" rx="1.5" fill="#b3b3b3"/>
<rect x="685" y="61" width="3" height="19" rx="1.5" transform="rotate(90 685 61)" fill="#b3b3b3"/>
</g>
<g opacity="0.6">
<rect x="974" y="953" width="3" height="19" rx="1.5" fill="#b3b3b3"/>
<rect x="985" y="961" width="3" height="19" rx="1.5" transform="rotate(90 985 961)" fill="#b3b3b3"/>
<rect x="1274" y="953" width="3" height="19" rx="1.5" fill="#b3b3b3"/>
<rect x="1285" y="961" width="3" height="19" rx="1.5" transform="rotate(90 1285 961)" fill="#b3b3b3"/>
<rect x="974" y="653" width="3" height="19" rx="1.5" fill="#b3b3b3"/>
<rect x="985" y="661" width="3" height="19" rx="1.5" transform="rotate(90 985 661)" fill="#b3b3b3"/>
<rect x="1274" y="653" width="3" height="19" rx="1.5" fill="#b3b3b3"/>
<rect x="1285" y="661" width="3" height="19" rx="1.5" transform="rotate(90 1285 661)" fill="#b3b3b3"/>
<rect x="974" y="353" width="3" height="19" rx="1.5" fill="#b3b3b3"/>
<rect x="985" y="361" width="3" height="19" rx="1.5" transform="rotate(90 985 361)" fill="#b3b3b3"/>
<rect x="1274" y="353" width="3" height="19" rx="1.5" fill="#b3b3b3"/>
<rect x="1285" y="361" width="3" height="19" rx="1.5" transform="rotate(90 1285 361)" fill="#b3b3b3"/>
<rect x="974" y="53" width="3" height="19" rx="1.5" fill="#b3b3b3"/>
<rect x="985" y="61" width="3" height="19" rx="1.5" transform="rotate(90 985 61)" fill="#b3b3b3"/>
<rect x="1274" y="53" width="3" height="19" rx="1.5" fill="#b3b3b3"/>
<rect x="1285" y="61" width="3" height="19" rx="1.5" transform="rotate(90 1285 61)" fill="#b3b3b3"/>
</g>
</svg>
